# xmcd
#
# Track frame offsets:
#	150
#	13707
#	30547
#	47189
#	59454
#	74480
#	89201
#	105052
#	122208
#	140708
#	158016
#	174199
#	188958
#	202099
#	216212
#	234283
#	246634
#	263133
#	277539
#	289711
#
# Disc length: 4006 seconds
#
# Revision: 0
# Processed by: cddbd v1.5.2PL0 Copyright (c) Steve Scherf et al.
# Submitted via: EasyCDDAExtractor 16.0.6.1
#
DISCID=280fa414
DTITLE=Hernadi Judit - Raadas
DYEAR=2006
DGENRE=Blues
TTITLE0=Van bennem valami
TTITLE1=Mondd, hol van a sok virag
TTITLE2=Talalkozas varatlanul
TTITLE3=Szomoru boldogsag
TTITLE4=De szep volt
TTITLE5=A level
TTITLE6=Fenylo sinek
TTITLE7=Jojj kedvesem
TTITLE8=A vizicsoda
TTITLE9=Egy misz delelott
TTITLE10=Sohase monnd
TTITLE11=Madar a droton
TTITLE12=A zongorista
TTITLE13=Ha kedd van
TTITLE14=Piszkos kis alberlet
TTITLE15=Nem szabad!
TTITLE16=Kaphato vagyok
TTITLE17=Lili Marlene
TTITLE18=Eselyt adok
TTITLE19=Raadas
EXTD=
EXTT0=
EXTT1=
EXTT2=
EXTT3=
EXTT4=
EXTT5=
EXTT6=
EXTT7=
EXTT8=
EXTT9=
EXTT10=
EXTT11=
EXTT12=
EXTT13=
EXTT14=
EXTT15=
EXTT16=
EXTT17=
EXTT18=
EXTT19=
PLAYORDER=
